<svg xmlns="http://www.w3.org/2000/svg" width="27" height="26" viewBox="0 0 27 26" fill="none">
<path d="M3.36572 16C3.36572 14.0069 4.1575 12.0954 5.56687 10.686C6.97624 9.27664 8.88775 8.48486 10.8809 8.48486C12.874 8.48486 14.7856 9.27664 16.1949 10.686C17.6043 12.0954 18.3961 14.0069 18.3961 16V20.7816C18.3961 21.5782 18.3961 21.9746 18.2777 22.2931C18.1836 22.5454 18.0363 22.7746 17.8459 22.965C17.6554 23.1555 17.4263 23.3027 17.1739 23.3969C16.8555 23.5152 16.4581 23.5152 15.6624 23.5152H10.8809C8.88775 23.5152 6.97624 22.7234 5.56687 21.3141C4.1575 19.9047 3.36572 17.9932 3.36572 16Z" stroke="#070A1C" style="stroke:#070A1C;stroke:color(display-p3 0.0275 0.0392 0.1098);stroke-opacity:1;" stroke-width="1.66667"/>
<path d="M8.0625 15.0607H13.6989M10.8807 18.8183H13.6989" stroke="#070A1C" style="stroke:#070A1C;stroke:color(display-p3 0.0275 0.0392 0.1098);stroke-opacity:1;" stroke-width="1.66667" stroke-linecap="round" stroke-linejoin="round"/>
<rect x="10.7559" y="1.875" width="14.25" height="14.25" rx="7.125" fill="#F43F5E" style="fill:#F43F5E;fill:color(display-p3 0.9569 0.2471 0.3686);fill-opacity:1;"/>
<rect x="10.7559" y="1.875" width="14.25" height="14.25" rx="7.125" stroke="white" style="stroke:white;stroke-opacity:1;" stroke-width="2.25"/>
<path d="M15.6759 12.063V10.983L17.4759 9.129C17.8299 8.763 18.0969 8.475 18.2769 8.265C18.4629 8.049 18.5889 7.869 18.6549 7.725C18.7269 7.581 18.7629 7.44 18.7629 7.302C18.7629 7.056 18.6819 6.864 18.5199 6.726C18.3639 6.582 18.1659 6.51 17.9259 6.51C17.6799 6.51 17.4609 6.582 17.2689 6.726C17.0769 6.864 16.9359 7.077 16.8459 7.365L15.6309 6.969C15.7029 6.621 15.8529 6.318 16.0809 6.06C16.3089 5.802 16.5849 5.604 16.9089 5.466C17.2329 5.322 17.5719 5.25 17.9259 5.25C18.3699 5.25 18.7599 5.328 19.0959 5.484C19.4319 5.64 19.6929 5.859 19.8789 6.141C20.0649 6.423 20.1579 6.753 20.1579 7.131C20.1579 7.371 20.1159 7.608 20.0319 7.842C19.9479 8.07 19.8189 8.304 19.6449 8.544C19.4769 8.778 19.2579 9.033 18.9879 9.309L17.4489 10.893H20.2209V12.063H15.6759Z" fill="white" style="fill:white;fill-opacity:1;"/>
</svg>