<svg width="21" height="20" viewBox="0 0 21 20" fill="none" xmlns="http://www.w3.org/2000/svg">
<path d="M3.42041 2.22754H8.42041C8.62856 2.22754 8.82911 2.29997 8.98877 2.43066L9.05518 2.49023C9.22349 2.65855 9.31787 2.88697 9.31787 3.125C9.31787 3.33315 9.24544 3.5337 9.11475 3.69336L9.05518 3.75977C8.88686 3.92808 8.65844 4.02246 8.42041 4.02246H4.31787V15.9775H8.42041C8.62856 15.9775 8.82911 16.05 8.98877 16.1807L9.05518 16.2402C9.22349 16.4085 9.31787 16.637 9.31787 16.875C9.31787 17.0831 9.24544 17.2837 9.11475 17.4434L9.05518 17.5098C8.88686 17.6781 8.65844 17.7725 8.42041 17.7725H3.42041C3.21227 17.7725 3.01171 17.7 2.85205 17.5693L2.78564 17.5098C2.61733 17.3415 2.52295 17.113 2.52295 16.875V3.125C2.52295 2.91685 2.59538 2.7163 2.72607 2.55664L2.78564 2.49023C2.95396 2.32192 3.18238 2.22754 3.42041 2.22754ZM14.0444 5.97656C14.2532 5.97656 14.4547 6.04938 14.6147 6.18066L14.6802 6.24023L17.8052 9.36523C17.8679 9.42783 17.9207 9.49929 17.9624 9.57715L18.0005 9.65625C18.0457 9.76537 18.0689 9.88285 18.0688 10.001L18.0649 10.0889C18.0591 10.1475 18.047 10.2053 18.0298 10.2617L18.0005 10.3447C17.9664 10.4266 17.92 10.5031 17.8638 10.5713L17.8052 10.6367H17.8042L14.6792 13.7617C14.5106 13.9302 14.2818 14.0254 14.0435 14.0254C13.835 14.0253 13.634 13.9523 13.4741 13.8213L13.4077 13.7617C13.2392 13.5932 13.1451 13.3643 13.145 13.126C13.145 12.9173 13.217 12.7157 13.3481 12.5557L13.4077 12.4902L14.9331 10.9658L15.0015 10.8975H8.42041C8.21227 10.8975 8.01171 10.825 7.85205 10.6943L7.78564 10.6348C7.61733 10.4665 7.52295 10.238 7.52295 10C7.52295 9.79185 7.59538 9.5913 7.72607 9.43164L7.78564 9.36523C7.95396 9.19692 8.18238 9.10254 8.42041 9.10254H15.0015L14.9331 9.03418L13.4087 7.51172C13.2401 7.34315 13.1451 7.11437 13.145 6.87598C13.145 6.66725 13.2179 6.46569 13.3491 6.30566L13.4087 6.24023C13.5773 6.07166 13.806 5.97661 14.0444 5.97656Z" fill="#543C52" stroke="#543C52" style="fill:#543C52;fill:color(display-p3 0.3294 0.2353 0.3216);fill-opacity:1;stroke:#543C52;stroke:color(display-p3 0.3294 0.2353 0.3216);stroke-opacity:1;" stroke-width="0.08"/>
</svg>
