<svg xmlns="http://www.w3.org/2000/svg" width="26" height="26" viewBox="0 0 26 26" fill="none">
<path d="M2.8754 13.498C2.87531 12.7728 3.05548 12.059 3.39969 11.4207C3.7439 10.7825 4.24137 10.2398 4.84734 9.84149C5.45332 9.44318 6.1488 9.20175 6.87123 9.1389C7.59366 9.07605 8.32038 9.19376 8.98603 9.48144C9.65169 9.76913 10.2354 10.2178 10.6847 10.787C11.1339 11.3562 11.4346 12.0282 11.5598 12.7425C11.6849 13.4568 11.6305 14.1909 11.4015 14.879C11.1725 15.567 10.7761 16.1874 10.2479 16.6842C11.2438 17.1677 12.1084 17.8841 12.7686 18.7728C13.4288 19.6615 13.8651 20.6962 14.0404 21.7892C14.0597 21.9109 14.0548 22.0351 14.0261 22.1549C13.9974 22.2746 13.9453 22.3876 13.873 22.4872C13.8006 22.5869 13.7093 22.6713 13.6043 22.7356C13.4993 22.8 13.3827 22.8431 13.261 22.8624C13.1394 22.8816 13.0151 22.8768 12.8954 22.8481C12.7756 22.8193 12.6627 22.7673 12.5631 22.6949C12.4634 22.6225 12.379 22.5313 12.3146 22.4263C12.2502 22.3213 12.2072 22.2046 12.1879 22.083C12.0004 20.9084 11.4003 19.8391 10.4954 19.0671C9.59041 18.2951 8.43989 17.8711 7.2504 17.8711C6.06092 17.8711 4.9104 18.2951 4.00544 19.0671C3.10049 19.8391 2.50039 20.9084 2.3129 22.083C2.29353 22.2046 2.25039 22.3212 2.18595 22.4262C2.1215 22.5312 2.03702 22.6224 1.93731 22.6947C1.8376 22.767 1.72463 22.819 1.60484 22.8477C1.48505 22.8763 1.36079 22.8811 1.23915 22.8617C1.11751 22.8424 1.00088 22.7992 0.895918 22.7348C0.790953 22.6703 0.699709 22.5858 0.627395 22.4861C0.555082 22.3864 0.503115 22.2735 0.474462 22.1537C0.445809 22.0339 0.441031 21.9096 0.460401 21.788C0.635117 20.695 1.07114 19.6604 1.73142 18.772C2.3917 17.8837 3.2567 17.1679 4.2529 16.6855C3.8179 16.2763 3.47128 15.7824 3.23437 15.2342C2.99747 14.6861 2.8753 14.0952 2.8754 13.498ZM14.1254 11.623C14.8517 11.6235 15.5622 11.8348 16.1707 12.2313C16.7792 12.6278 17.2595 13.1924 17.5533 13.8565C17.8471 14.5207 17.9419 15.2559 17.826 15.9729C17.7101 16.6898 17.3885 17.3577 16.9004 17.8955C17.6617 18.2726 18.3381 18.801 18.8883 19.4483C19.4385 20.0957 19.8509 20.8484 20.1004 21.6605C20.15 21.8181 20.1569 21.986 20.1206 22.1471C20.0843 22.3083 20.006 22.4569 19.8936 22.578C19.7813 22.6992 19.6389 22.7884 19.4809 22.8367C19.323 22.8849 19.155 22.8906 18.9942 22.853C18.8333 22.8158 18.6852 22.7368 18.5647 22.624C18.4442 22.5111 18.3556 22.3685 18.3079 22.2105C18.0835 21.4859 17.6752 20.8319 17.1227 20.3122C16.5701 19.7926 15.8923 19.425 15.1554 19.2455C14.9507 19.1961 14.7686 19.0792 14.6384 18.9136C14.5083 18.7481 14.4376 18.5436 14.4379 18.333V17.893C14.4378 17.7184 14.4864 17.5473 14.5783 17.3989C14.6701 17.2505 14.8016 17.1307 14.9579 17.053C15.3369 16.8652 15.6412 16.5548 15.8215 16.1722C16.0017 15.7896 16.0473 15.3573 15.9509 14.9455C15.8545 14.5337 15.6217 14.1666 15.2902 13.9038C14.9588 13.641 14.5483 13.498 14.1254 13.498C13.8768 13.498 13.6383 13.3992 13.4625 13.2234C13.2867 13.0476 13.1879 12.8091 13.1879 12.5605C13.1879 12.3118 13.2867 12.0734 13.4625 11.8976C13.6383 11.7217 13.8768 11.623 14.1254 11.623ZM7.2504 10.998C6.91748 10.9904 6.5864 11.0495 6.27662 11.1717C5.96684 11.2939 5.68458 11.4767 5.44643 11.7095C5.20829 11.9422 5.01904 12.2202 4.88981 12.5272C4.76058 12.8341 4.69396 13.1637 4.69388 13.4967C4.6938 13.8297 4.76025 14.1594 4.88932 14.4664C5.0184 14.7733 5.20751 15.0514 5.44554 15.2843C5.68357 15.5172 5.96573 15.7002 6.27546 15.8225C6.58518 15.9449 6.91622 16.0041 7.24915 15.9967C7.90235 15.9823 8.52394 15.7127 8.98086 15.2457C9.43778 14.7787 9.69372 14.1513 9.69388 13.498C9.69405 12.8446 9.43842 12.2171 8.98174 11.7499C8.52505 11.2826 7.9036 11.0127 7.2504 10.998Z" fill="#070A1C" style="fill:#070A1C;fill:color(display-p3 0.0275 0.0392 0.1098);fill-opacity:1;"/>
<rect x="10.1709" y="1.875" width="14.25" height="14.25" rx="7.125" fill="#F43F5E" style="fill:#F43F5E;fill:color(display-p3 0.9569 0.2471 0.3686);fill-opacity:1;"/>
<rect x="10.1709" y="1.875" width="14.25" height="14.25" rx="7.125" stroke="white" style="stroke:white;stroke-opacity:1;" stroke-width="2.25"/>
<path d="M15.0909 12.063V10.983L16.8909 9.129C17.2449 8.763 17.5119 8.475 17.6919 8.265C17.8779 8.049 18.0039 7.869 18.0699 7.725C18.1419 7.581 18.1779 7.44 18.1779 7.302C18.1779 7.056 18.0969 6.864 17.9349 6.726C17.7789 6.582 17.5809 6.51 17.3409 6.51C17.0949 6.51 16.8759 6.582 16.6839 6.726C16.4919 6.864 16.3509 7.077 16.2609 7.365L15.0459 6.969C15.1179 6.621 15.2679 6.318 15.4959 6.06C15.7239 5.802 15.9999 5.604 16.3239 5.466C16.6479 5.322 16.9869 5.25 17.3409 5.25C17.7849 5.25 18.1749 5.328 18.5109 5.484C18.8469 5.64 19.1079 5.859 19.2939 6.141C19.4799 6.423 19.5729 6.753 19.5729 7.131C19.5729 7.371 19.5309 7.608 19.4469 7.842C19.3629 8.07 19.2339 8.304 19.0599 8.544C18.8919 8.778 18.6729 9.033 18.4029 9.309L16.8639 10.893H19.6359V12.063H15.0909Z" fill="white" style="fill:white;fill-opacity:1;"/>
</svg>