<svg xmlns="http://www.w3.org/2000/svg" width="21" height="20" viewBox="0 0 21 20" fill="none">
<path d="M17.4288 8.62505L11.3674 2.56361C11.0832 2.27952 10.6979 2.11993 10.296 2.11993C9.89423 2.11993 9.50886 2.27952 9.22469 2.56361L3.16325 8.62505C3.02196 8.76547 2.90996 8.93255 2.83374 9.11659C2.75752 9.30063 2.71861 9.49797 2.71925 9.69717V16.9709C2.71925 17.212 2.81504 17.4433 2.98555 17.6138C3.15606 17.7843 3.38732 17.8801 3.62846 17.8801H16.9636C17.2048 17.8801 17.436 17.7843 17.6065 17.6138C17.7771 17.4433 17.8728 17.212 17.8728 16.9709V9.69717C17.8735 9.49797 17.8346 9.30063 17.7584 9.11659C17.6821 8.93255 17.5701 8.76547 17.4288 8.62505ZM16.0544 16.0617H4.53768V9.82219L10.296 4.06382L16.0544 9.82219V16.0617Z" fill="#070A1C" style="fill:#070A1C;fill:color(display-p3 0.0275 0.0392 0.1098);fill-opacity:1;"/>
</svg>