<svg width="146" height="18" viewBox="0 0 146 18" fill="none" xmlns="http://www.w3.org/2000/svg">
<g clip-path="url(#clip0_1815_324)">
<path d="M28.319 1.382H32.6185L34.6377 11.7977L36.4132 4.23032C36.918 2.0056 38.0147 1.04492 39.7031 1.04492C41.3916 1.04492 42.4709 1.98874 42.9931 4.23032L44.7686 11.7977L46.7878 1.382H51.0873L48.2848 14.1236C47.8844 15.9438 46.6311 16.9719 44.9252 16.9719C43.2194 16.9719 42.0183 15.9775 41.6179 14.309L39.6857 6.08425L37.7536 14.309C37.3532 15.9775 35.9781 16.9719 34.4462 16.9719C32.9144 16.9719 31.4871 15.9607 31.0867 14.1236L28.2842 1.382H28.319Z" fill="#543C52" style="fill:#543C52;fill:color(display-p3 0.3294 0.2353 0.3216);fill-opacity:1;"/>
<path d="M52.0098 8.99997C52.0098 4.46626 55.5434 1.06177 60.2955 1.06177C65.0476 1.06177 68.5812 4.46626 68.5812 8.99997C68.5812 13.5337 65.0476 16.9382 60.2955 16.9382C55.5434 16.9382 52.0098 13.5337 52.0098 8.99997ZM64.1772 8.99997C64.1772 6.74154 62.5062 5.00559 60.3129 5.00559C58.1196 5.00559 56.4485 6.74154 56.4485 8.99997C56.4485 11.2584 58.1196 12.9944 60.3129 12.9944C62.5062 12.9944 64.1772 11.2584 64.1772 8.99997Z" fill="#543C52" style="fill:#543C52;fill:color(display-p3 0.3294 0.2353 0.3216);fill-opacity:1;"/>
<path d="M71.1572 16.6011V1.38202H77.7545C81.4796 1.38202 84.3169 3.06741 84.3169 6.4382C84.3169 9.80898 83.1506 10.0955 81.3055 10.6517C82.0888 11.1404 82.611 12.0337 83.3073 13.3989L84.9087 16.6011H80.2263L78.7641 13.736C78.2245 12.691 77.6152 12.3202 76.2227 12.3202H75.4393V16.6011H71.1572ZM75.4567 5.20786V8.61236C75.4393 8.61236 77.7371 8.61236 77.7371 8.61236C78.9904 8.61236 79.8781 7.9382 79.8781 6.85955C79.8781 5.7809 78.9904 5.20786 77.7893 5.20786H75.4567Z" fill="#543C52" style="fill:#543C52;fill:color(display-p3 0.3294 0.2353 0.3216);fill-opacity:1;"/>
<path d="M92.0114 12.7584H98.9568V16.5843H91.437C88.7911 16.5843 87.7119 15.236 87.7119 13.0955V1.38202H92.0114V12.7584Z" fill="#543C52" style="fill:#543C52;fill:color(display-p3 0.3294 0.2353 0.3216);fill-opacity:1;"/>
<path d="M107.277 16.6011H101.062V1.38202H107.277C112.429 1.38202 115.841 4.43258 115.841 9.05056C115.841 13.6685 112.307 16.6011 107.277 16.6011ZM107.277 5.20786H105.362V12.8764H107.277C109.783 12.8764 111.42 11.3427 111.42 9.05056C111.42 6.75842 109.783 5.22472 107.277 5.22472V5.20786Z" fill="#543C52" style="fill:#543C52;fill:color(display-p3 0.3294 0.2353 0.3216);fill-opacity:1;"/>
<path d="M129.454 1.38202V16.6011H125.154V1.38202H129.454Z" fill="#543C52" style="fill:#543C52;fill:color(display-p3 0.3294 0.2353 0.3216);fill-opacity:1;"/>
<path d="M144.876 5.20786H140.438V16.5843H136.138V5.20786H131.699V1.38202H144.894V5.20786H144.876Z" fill="#543C52" style="fill:#543C52;fill:color(display-p3 0.3294 0.2353 0.3216);fill-opacity:1;"/>
<path d="M1.61621 4.66852H8.43974V8.37638H3.56579C2.48656 8.37638 1.61621 7.53369 1.61621 6.48874V4.66852Z" fill="#543C52" style="fill:#543C52;fill:color(display-p3 0.3294 0.2353 0.3216);fill-opacity:1;"/>
<path d="M6.49085 15.809H1.6169L1.6169 12.1011H8.44043V13.9213C8.44043 14.9663 7.57008 15.809 6.49085 15.809Z" fill="#543C52" style="fill:#543C52;fill:color(display-p3 0.3294 0.2353 0.3216);fill-opacity:1;"/>
<path d="M8.54487 8.17413C8.51006 8.17413 8.47524 8.17413 8.44043 8.17413V11.8989C8.47524 11.8989 8.51006 11.8989 8.54487 11.8989C11.6607 11.8989 14.1847 14.3595 14.1847 17.3595C14.1847 20.3595 14.1847 17.4269 14.1847 17.4606H18.0317C18.0317 17.4269 18.0317 17.3932 18.0317 17.3595C18.0317 12.3033 13.7844 8.17413 8.54487 8.17413Z" fill="#543C52" style="fill:#543C52;fill:color(display-p3 0.3294 0.2353 0.3216);fill-opacity:1;"/>
<path d="M10.5641 0.539307C11.7478 0.539307 12.6877 1.46627 12.6877 2.59549C12.6877 3.74155 11.7303 4.65167 10.5641 4.65167H8.44043V2.59549C8.44043 1.44942 9.39781 0.539307 10.5641 0.539307Z" fill="#543C52" style="fill:#543C52;fill:color(display-p3 0.3294 0.2353 0.3216);fill-opacity:1;"/>
<path d="M14.2892 6.15168H14.3762C15.438 6.15168 16.7088 6.01684 17.9969 5.79774C19.2676 5.57864 20.5209 5.27527 21.5131 4.93819C21.5479 4.93819 21.5653 4.92134 21.6001 4.90448C21.4783 4.04493 21.0431 3.2528 20.3642 2.66291C19.6853 2.08988 18.815 1.76965 17.9098 1.76965C16.0821 1.76965 14.5677 3.05055 14.2544 4.71909C14.2196 4.92134 14.2021 5.14044 14.2021 5.35954C14.2021 5.57864 14.2021 5.46066 14.2021 5.49437C14.2021 5.71347 14.237 5.93257 14.2892 6.13482V6.15168Z" fill="#543C52" style="fill:#543C52;fill:color(display-p3 0.3294 0.2353 0.3216);fill-opacity:1;"/>
<path d="M24.315 4.28087C24.228 3.80896 23.114 3.55615 21.4777 3.55615C21.5822 3.7584 21.6692 3.96065 21.7562 4.17975C21.7562 4.21346 21.7736 4.24716 21.791 4.28087C22.5569 4.28087 23.0617 4.36514 23.3403 4.44941C23.0966 4.61795 22.6614 4.85391 21.9303 5.12357L21.6866 5.20784L21.5996 5.24155C20.6248 5.57862 19.4411 5.86514 18.2052 6.08424C18.153 6.08424 18.0834 6.1011 18.0311 6.11795C17.9615 6.11795 17.8919 6.1348 17.8222 6.15166C16.6212 6.35391 15.4375 6.45503 14.4279 6.47188H14.3583H14.0275C13.2616 6.47188 12.7568 6.38761 12.4783 6.30334C12.722 6.1348 13.1572 5.89885 13.8883 5.62919C13.8883 5.59548 13.8883 5.56177 13.8883 5.52806C13.8883 5.4775 13.8883 5.42694 13.8883 5.37638C13.8883 5.20784 13.8883 5.02244 13.9231 4.8539C12.3739 5.39323 11.4165 5.98312 11.5035 6.47188C11.5906 6.9775 12.8787 7.23031 14.7064 7.17975C14.776 7.17975 14.8283 7.17975 14.8979 7.17975C15.7682 7.14604 16.743 7.04492 17.7352 6.89323C17.8048 6.89323 17.8745 6.87638 17.9441 6.85952C18.0137 6.85952 18.0834 6.84267 18.153 6.82582C18.2226 6.82582 18.2922 6.80896 18.3619 6.79211C18.4315 6.79211 18.5011 6.7584 18.5707 6.7584C19.5629 6.57301 20.5203 6.33705 21.3385 6.08424C21.3907 6.06739 21.4603 6.05053 21.5125 6.03368C23.2532 5.4775 24.3673 4.8202 24.2802 4.29773L24.315 4.28087Z" fill="#543C52" style="fill:#543C52;fill:color(display-p3 0.3294 0.2353 0.3216);fill-opacity:1;"/>
<path d="M18.2232 7.11237C17.0743 7.31462 15.9254 7.43259 14.8984 7.4663C15.5947 8.39327 16.7088 8.94945 17.8924 8.94945C19.5809 8.94945 21.0083 7.85394 21.4609 6.35394C20.4861 6.65731 19.372 6.91012 18.2232 7.11237Z" fill="#543C52" style="fill:#543C52;fill:color(display-p3 0.3294 0.2353 0.3216);fill-opacity:1;"/>
</g>
<defs>
<clipPath id="clip0_1815_324">
<rect width="145" height="18" fill="white" style="fill:white;fill-opacity:1;" transform="translate(0.746094)"/>
</clipPath>
</defs>
</svg>
