<svg xmlns="http://www.w3.org/2000/svg" width="21" height="20" viewBox="0 0 21 20" fill="none">
<path d="M1.9624 5.00002C1.9624 4.11597 2.31359 3.26812 2.93871 2.643C3.56383 2.01788 4.41168 1.66669 5.29574 1.66669H15.2957C16.1798 1.66669 17.0276 2.01788 17.6528 2.643C18.2779 3.26812 18.6291 4.11597 18.6291 5.00002V15C18.6291 15.8841 18.2779 16.7319 17.6528 17.357C17.0276 17.9822 16.1798 18.3334 15.2957 18.3334H5.29574C4.41168 18.3334 3.56383 17.9822 2.93871 17.357C2.31359 16.7319 1.9624 15.8841 1.9624 15V5.00002Z" stroke="#070A1C" style="stroke:#070A1C;stroke:color(display-p3 0.0275 0.0392 0.1098);stroke-opacity:1;" stroke-width="1.66667" stroke-linecap="round" stroke-linejoin="round"/>
<path d="M7.37923 9.16667C8.52982 9.16667 9.46256 8.23393 9.46256 7.08333C9.46256 5.93274 8.52982 5 7.37923 5C6.22864 5 5.2959 5.93274 5.2959 7.08333C5.2959 8.23393 6.22864 9.16667 7.37923 9.16667Z" stroke="#070A1C" style="stroke:#070A1C;stroke:color(display-p3 0.0275 0.0392 0.1098);stroke-opacity:1;" stroke-width="1.66667" stroke-linecap="round" stroke-linejoin="round"/>
<path d="M12.4009 10.5175L5.2959 18.3334H15.4067C16.2614 18.3334 17.081 17.9938 17.6854 17.3895C18.2897 16.7852 18.6292 15.9655 18.6292 15.1109V15C18.6292 14.6117 18.4834 14.4625 18.2209 14.175L14.8626 10.5125C14.706 10.3418 14.5157 10.2055 14.3035 10.1125C14.0914 10.0195 13.8623 9.97164 13.6306 9.97211C13.399 9.97258 13.17 10.0213 12.9583 10.1152C12.7466 10.2091 12.5567 10.3462 12.4009 10.5175Z" stroke="#070A1C" style="stroke:#070A1C;stroke:color(display-p3 0.0275 0.0392 0.1098);stroke-opacity:1;" stroke-width="1.66667" stroke-linecap="round" stroke-linejoin="round"/>
</svg>