<svg xmlns="http://www.w3.org/2000/svg" width="21" height="20" viewBox="0 0 21 20" fill="none">
<circle cx="2.34996" cy="2.34996" r="2.34996" transform="matrix(-1 0 0 1 13.1875 7.65027)" stroke="#070A1C" style="stroke:#070A1C;stroke:color(display-p3 0.0275 0.0392 0.1098);stroke-opacity:1;" stroke-width="1.8"/>
<path d="M10.838 2.16699L10.838 1.26699H10.838V2.16699ZM14.3624 4.46777L13.9123 5.24715L13.9124 5.2472L14.3624 4.46777ZM16.3204 9.2168L15.4204 9.21677V9.2168H16.3204ZM14.3624 15.5322L13.9124 14.7528L13.9123 14.7528L14.3624 15.5322ZM10.838 17.833V18.733H10.838L10.838 17.833ZM7.31259 15.5322L7.76259 14.7528L7.76259 14.7528L7.31259 15.5322ZM4.57138 10H5.47138V9.99993L4.57138 10ZM7.31259 4.46777L7.76259 5.2472L7.7626 5.24719L7.31259 4.46777ZM9.02512 2.37812L8.81751 1.5024L9.02512 2.37812ZM5.72043 15.2563L5.55901 14.3709L5.72043 15.2563ZM4.81213 15.0027L5.50431 14.4275L4.81213 15.0027ZM9.02509 17.6219L9.23271 16.7462L9.02509 17.6219ZM13.2807 16.9192L12.4153 16.672L13.2807 16.9192ZM12.6499 17.6219L12.8575 18.4976L12.6499 17.6219ZM16.8618 15.0031L17.5537 15.5787L16.8618 15.0031ZM15.9539 15.2566L15.7925 16.142L15.9539 15.2566ZM15.9539 4.7427L15.792 3.85738L15.9539 4.7427ZM4.81208 4.99632L4.1199 4.4211L4.81208 4.99632ZM17.6362 11.3248L17.2403 12.133L17.6362 11.3248ZM10.838 2.16699L10.8379 3.06699C11.391 3.06702 11.928 3.1319 12.4422 3.25383L12.6499 2.37811L12.8575 1.50239C12.2086 1.34853 11.5324 1.26703 10.838 1.26699L10.838 2.16699ZM13.2807 3.08086L12.4153 3.32808C12.638 4.10767 13.1525 4.80836 13.9123 5.24715L14.3624 4.46777L14.8125 3.6884C14.4743 3.49313 14.2461 3.18362 14.1461 2.83364L13.2807 3.08086ZM14.3624 4.46777L13.9124 5.2472C14.6063 5.64782 15.3871 5.76127 16.1158 5.62802L15.9539 4.7427L15.792 3.85738C15.4653 3.91711 15.1208 3.86639 14.8124 3.68835L14.3624 4.46777ZM16.8619 4.99588L16.1702 5.57168C16.4309 5.88481 16.6643 6.22077 16.867 6.57613L17.6488 6.13031L18.4306 5.68448C18.1751 5.23638 17.8811 4.81353 17.5536 4.42008L16.8619 4.99588ZM17.239 7.35563L16.6908 6.64187C15.9205 7.23345 15.4204 8.16605 15.4204 9.21677L16.3204 9.2168L17.2204 9.21682C17.2204 8.75004 17.4406 8.3356 17.7872 8.06939L17.239 7.35563ZM16.3204 9.2168H15.4204C15.4204 10.5004 16.1649 11.6061 17.2403 12.133L17.6362 11.3248L18.0322 10.5166C17.5491 10.2799 17.2204 9.78632 17.2204 9.2168H16.3204ZM18.2813 12.4426L17.4262 12.1619C17.1518 12.9978 16.7218 13.7641 16.1699 14.4275L16.8618 15.0031L17.5537 15.5787C18.2474 14.7448 18.7898 13.7792 19.1364 12.7233L18.2813 12.4426ZM15.9539 15.2566L16.1152 14.3711C15.3864 14.2383 14.6058 14.3525 13.9124 14.7528L14.3624 15.5322L14.8124 16.3116C15.1211 16.1334 15.466 16.0825 15.7925 16.142L15.9539 15.2566ZM14.3624 15.5322L13.9123 14.7528C13.1525 15.1916 12.638 15.8924 12.4153 16.672L13.2807 16.9192L14.1461 17.1664C14.2461 16.8164 14.4744 16.5069 14.8125 16.3116L14.3624 15.5322ZM12.6499 17.6219L12.4422 16.7462C11.928 16.8681 11.3911 16.933 10.8379 16.933L10.838 17.833L10.838 18.733C11.5324 18.733 12.2086 18.6515 12.8575 18.4976L12.6499 17.6219ZM10.838 17.833V16.933C10.2846 16.933 9.74721 16.8681 9.23271 16.7462L9.02509 17.6219L8.81746 18.4976C9.46672 18.6515 10.1434 18.733 10.838 18.733V17.833ZM8.39431 16.9192L9.25971 16.672C9.03704 15.8924 8.52262 15.1916 7.76259 14.7528L7.31259 15.5322L6.86259 16.3116C7.20072 16.5069 7.42894 16.8163 7.52892 17.1663L8.39431 16.9192ZM7.31259 15.5322L7.76259 14.7528C7.06916 14.3525 6.28828 14.238 5.55901 14.3709L5.72043 15.2563L5.88185 16.1417C6.20834 16.0822 6.55352 16.1332 6.8626 16.3117L7.31259 15.5322ZM4.81213 15.0027L5.50431 14.4275C5.00604 13.8279 4.60764 13.1437 4.33325 12.3996L3.48884 12.7111L2.64444 13.0225C2.99066 13.9612 3.49292 14.8234 4.11995 15.5779L4.81213 15.0027ZM3.82133 11.7181L4.4339 12.3774C5.06993 11.7865 5.47138 10.9405 5.47138 10H4.57138H3.67138C3.67138 10.4178 3.49488 10.7929 3.20875 11.0587L3.82133 11.7181ZM4.57138 10L5.47138 9.99993C5.47131 9.05985 5.07038 8.21331 4.43431 7.62199L3.82153 8.28116L3.20875 8.94032C3.49474 9.20619 3.67135 9.58181 3.67138 10.0001L4.57138 10ZM3.48901 7.28771L4.33339 7.59921C4.60786 6.85521 5.00615 6.17093 5.50426 5.57155L4.81208 4.99632L4.1199 4.4211C3.4929 5.17557 2.99084 6.03777 2.64464 6.97621L3.48901 7.28771ZM5.72039 4.74295L5.55843 5.62825C6.28756 5.76165 7.06863 5.64786 7.76259 5.2472L7.31259 4.46777L6.86259 3.68835C6.55382 3.86662 6.20898 3.9174 5.88236 3.85764L5.72039 4.74295ZM7.31259 4.46777L7.7626 5.24719C8.5226 4.8084 9.03704 4.10766 9.25971 3.32801L8.39432 3.08085L7.52892 2.83369C7.42896 3.18368 7.20075 3.49311 6.86259 3.68835L7.31259 4.46777ZM9.02512 2.37812L9.23273 3.25385C9.74724 3.13187 10.2846 3.06699 10.838 3.06699V2.16699V1.26699C10.1435 1.26699 9.46674 1.34848 8.81751 1.5024L9.02512 2.37812ZM8.39432 3.08085L9.25971 3.32801C9.26847 3.29737 9.27893 3.27122 9.28931 3.25065C9.29976 3.22994 9.3081 3.21886 9.31122 3.21514C9.31413 3.21167 9.30966 3.21793 9.29529 3.22737C9.27989 3.23748 9.25823 3.2478 9.23273 3.25385L9.02512 2.37812L8.81751 1.5024C8.03733 1.68736 7.66479 2.35796 7.52892 2.83369L8.39432 3.08085ZM3.82153 8.28116L4.43431 7.62199C4.40781 7.59735 4.38607 7.57213 4.36988 7.54911C4.35355 7.52589 4.34619 7.50972 4.34366 7.50301C4.34126 7.49667 4.3451 7.50406 4.34583 7.52382C4.34662 7.54537 4.34325 7.57248 4.33339 7.59921L3.48901 7.28771L2.64464 6.97621C2.3304 7.82799 2.81127 8.57081 3.20875 8.94032L3.82153 8.28116ZM5.72043 15.2563L5.55901 14.3709C5.52773 14.3766 5.49973 14.3788 5.47676 14.3786C5.45363 14.3784 5.44002 14.3758 5.4353 14.3747C5.43089 14.3736 5.4384 14.3748 5.45313 14.3835C5.4689 14.3927 5.48765 14.4074 5.50431 14.4275L4.81213 15.0027L4.11995 15.5779C4.63122 16.1932 5.39548 16.2304 5.88185 16.1417L5.72043 15.2563ZM9.02509 17.6219L9.23271 16.7462C9.25821 16.7522 9.27987 16.7625 9.29526 16.7726C9.30964 16.7821 9.31411 16.7883 9.3112 16.7849C9.30809 16.7812 9.29975 16.7701 9.2893 16.7494C9.27892 16.7288 9.26846 16.7027 9.25971 16.672L8.39431 16.9192L7.52892 17.1663C7.66479 17.6421 8.03732 18.3126 8.81746 18.4976L9.02509 17.6219ZM13.2807 16.9192L12.4153 16.672C12.4066 16.7026 12.3961 16.7287 12.3857 16.7493C12.3753 16.77 12.3669 16.7811 12.3638 16.7849C12.3609 16.7883 12.3653 16.7821 12.3797 16.7726C12.3951 16.7625 12.4167 16.7522 12.4422 16.7462L12.6499 17.6219L12.8575 18.4976C13.6377 18.3126 14.0102 17.6421 14.1461 17.1664L13.2807 16.9192ZM16.8618 15.0031L16.1699 14.4275C16.1865 14.4075 16.2052 14.3928 16.2209 14.3836C16.2356 14.375 16.2431 14.3738 16.2387 14.3749C16.234 14.3761 16.2204 14.3786 16.1973 14.3788C16.1744 14.379 16.1464 14.3768 16.1152 14.3711L15.9539 15.2566L15.7925 16.142C16.279 16.2306 17.0425 16.1931 17.5537 15.5787L16.8618 15.0031ZM17.6488 6.13031L16.867 6.57613C16.8502 6.54675 16.8412 6.5113 16.8404 6.481C16.8398 6.45485 16.8454 6.44818 16.8394 6.46357C16.8333 6.47927 16.8189 6.50758 16.791 6.54318C16.7633 6.57839 16.7287 6.61275 16.6908 6.64187L17.239 7.35563L17.7872 8.06939C18.0873 7.83886 18.3632 7.51103 18.5167 7.11673C18.6754 6.70918 18.715 6.18313 18.4306 5.68448L17.6488 6.13031ZM3.48884 12.7111L4.33325 12.3996C4.34311 12.4264 4.34648 12.4535 4.34569 12.4751C4.34496 12.4949 4.34111 12.5023 4.34349 12.496C4.346 12.4894 4.35333 12.4732 4.36961 12.4501C4.38577 12.4271 4.40745 12.402 4.4339 12.3774L3.82133 11.7181L3.20875 11.0587C2.81102 11.4282 2.33036 12.1709 2.64444 13.0225L3.48884 12.7111ZM15.9539 4.7427L16.1158 5.62802C16.1469 5.62233 16.1748 5.62014 16.1977 5.62033C16.2207 5.62052 16.2343 5.62306 16.239 5.6242C16.2434 5.62527 16.2359 5.62407 16.2212 5.61548C16.2055 5.60629 16.1868 5.59164 16.1702 5.57168L16.8619 4.99588L17.5536 4.42008C17.0423 3.80588 16.2788 3.76836 15.792 3.85738L15.9539 4.7427ZM4.81208 4.99632L5.50426 5.57155C5.48759 5.5916 5.46883 5.60635 5.45302 5.6156C5.43827 5.62425 5.43072 5.62547 5.43508 5.62441C5.43976 5.62328 5.45331 5.62072 5.47638 5.62054C5.49929 5.62035 5.52723 5.62255 5.55843 5.62825L5.72039 4.74295L5.88236 3.85764C5.39571 3.76861 4.63127 3.80575 4.1199 4.4211L4.81208 4.99632ZM17.6362 11.3248L17.2403 12.133C17.2834 12.1541 17.3243 12.181 17.3585 12.21C17.393 12.2394 17.4127 12.2643 17.4218 12.2784C17.4307 12.2922 17.4237 12.2866 17.4191 12.2607C17.4138 12.2307 17.4156 12.1941 17.4262 12.1619L18.2813 12.4426L19.1364 12.7233C19.3153 12.1783 19.1717 11.6711 18.9351 11.3037C18.7063 10.9484 18.3712 10.6826 18.0322 10.5166L17.6362 11.3248ZM12.6499 2.37811L12.4422 3.25383C12.4167 3.24778 12.3951 3.23747 12.3797 3.22736C12.3653 3.21792 12.3609 3.21167 12.3638 3.21515C12.3669 3.21888 12.3753 3.22997 12.3857 3.25069C12.3961 3.27127 12.4066 3.29743 12.4153 3.32808L13.2807 3.08086L14.1461 2.83364C14.0102 2.35795 13.6377 1.68737 12.8575 1.50239L12.6499 2.37811Z" fill="#070A1C" style="fill:#070A1C;fill:color(display-p3 0.0275 0.0392 0.1098);fill-opacity:1;"/>
</svg>