<svg width="20" height="20" viewBox="0 0 20 20" fill="none" xmlns="http://www.w3.org/2000/svg">
<path d="M8.11403 8.23317C7.86841 8.46204 7.6714 8.73805 7.53476 9.04471C7.39812 9.35137 7.32465 9.68242 7.31872 10.0181C7.3128 10.3538 7.37455 10.6872 7.50029 10.9985C7.62602 11.3098 7.81317 11.5926 8.05057 11.83C8.28796 12.0674 8.57074 12.2545 8.88204 12.3802C9.19333 12.506 9.52676 12.5677 9.86244 12.5618C10.1981 12.5559 10.5292 12.4824 10.8358 12.3458C11.1425 12.2091 11.4185 12.0121 11.6474 11.7665M8.82236 4.23317C9.17345 4.18943 9.52689 4.16716 9.8807 4.1665C15.714 4.1665 18.214 9.99984 18.214 9.99984C17.8415 10.7974 17.3742 11.5473 16.8224 12.2332M5.38903 5.50817C3.73174 6.63702 2.40559 8.18755 1.54736 9.99984C1.54736 9.99984 4.04736 15.8332 9.8807 15.8332C11.4773 15.8375 13.0397 15.3708 14.3724 14.4915M1.54736 1.6665L18.214 18.3332" stroke="#81818D" style="stroke:#81818D;stroke:color(display-p3 0.5059 0.5059 0.5529);stroke-opacity:1;" stroke-width="2" stroke-linecap="round" stroke-linejoin="round"/>
</svg>
