<svg width="21" height="20" viewBox="0 0 21 20" fill="none" xmlns="http://www.w3.org/2000/svg">
<path d="M4.0791 5.83333H17.4124M9.0791 9.16667V14.1667M12.4124 9.16667V14.1667M4.91243 5.83333L5.74577 15.8333C5.74577 16.2754 5.92136 16.6993 6.23392 17.0118C6.54648 17.3244 6.97041 17.5 7.41243 17.5H14.0791C14.5211 17.5 14.9451 17.3244 15.2576 17.0118C15.5702 16.6993 15.7458 16.2754 15.7458 15.8333L16.5791 5.83333M8.24577 5.83333V3.33333C8.24577 3.11232 8.33357 2.90036 8.48985 2.74408C8.64613 2.5878 8.85809 2.5 9.0791 2.5H12.4124C12.6334 2.5 12.8454 2.5878 13.0017 2.74408C13.158 2.90036 13.2458 3.11232 13.2458 3.33333V5.83333" stroke="#070A1C" style="stroke:#070A1C;stroke:color(display-p3 0.0275 0.0392 0.1098);stroke-opacity:1;" stroke-width="1.66667" stroke-linecap="round" stroke-linejoin="round"/>
</svg>
