<svg width="21" height="20" viewBox="0 0 21 20" fill="none" xmlns="http://www.w3.org/2000/svg">
<g clip-path="url(#clip0_1313_3050)">
<path d="M14.0706 15.3527L10.2461 11.5282L6.4216 15.3527C6.21874 15.5555 5.9436 15.6695 5.65671 15.6695C5.36981 15.6695 5.09467 15.5555 4.89181 15.3527C4.68894 15.1498 4.57498 14.8746 4.57498 14.5878C4.57498 14.3009 4.68894 14.0257 4.89181 13.8229L8.7163 9.99837L4.89181 6.17388C4.68894 5.97101 4.57498 5.69587 4.57498 5.40898C4.57498 5.12209 4.68894 4.84694 4.89181 4.64408C5.09467 4.44122 5.36981 4.32725 5.65671 4.32725C5.9436 4.32725 6.21874 4.44122 6.4216 4.64408L10.2461 8.46857L14.0706 4.64408C14.2734 4.44122 14.5486 4.32725 14.8355 4.32725C15.1224 4.32725 15.3975 4.44122 15.6004 4.64408C15.8032 4.84694 15.9172 5.12209 15.9172 5.40898C15.9172 5.69587 15.8032 5.97101 15.6004 6.17388L11.7759 9.99837L15.6004 13.8229C15.8032 14.0257 15.9172 14.3009 15.9172 14.5878C15.9172 14.8746 15.8032 15.1498 15.6004 15.3527C15.3975 15.5555 15.1224 15.6695 14.8355 15.6695C14.5486 15.6695 14.2734 15.5555 14.0706 15.3527Z" fill="black" style="fill:black;fill-opacity:1;"/>
</g>
<defs>
<clipPath id="clip0_1313_3050">
<rect width="20" height="20" fill="white" style="fill:white;fill-opacity:1;" transform="translate(0.246094)"/>
</clipPath>
</defs>
</svg>
