<svg width="20" height="20" viewBox="0 0 21 20" fill="none" xmlns="http://www.w3.org/2000/svg">
<path d="M1.91211 5.00008C1.91211 4.11603 2.2633 3.26818 2.88842 2.64306C3.51354 2.01794 4.36139 1.66675 5.24544 1.66675H15.2454C16.1295 1.66675 16.9773 2.01794 17.6025 2.64306C18.2276 3.26818 18.5788 4.11603 18.5788 5.00008V15.0001C18.5788 15.8841 18.2276 16.732 17.6025 17.3571C16.9773 17.9822 16.1295 18.3334 15.2454 18.3334H5.24544C4.36139 18.3334 3.51354 17.9822 2.88842 17.3571C2.2633 16.732 1.91211 15.8841 1.91211 15.0001V5.00008Z" stroke="#543C52" style="stroke:#543C52;stroke:color(display-p3 0.3294 0.2353 0.3216);stroke-opacity:1;" stroke-width="1.66667" stroke-linecap="round" stroke-linejoin="round"/>
<path d="M7.32845 9.16679C8.47904 9.16679 9.41178 8.23405 9.41178 7.08346C9.41178 5.93286 8.47904 5.00012 7.32845 5.00012C6.17786 5.00012 5.24512 5.93286 5.24512 7.08346C5.24512 8.23405 6.17786 9.16679 7.32845 9.16679Z" stroke="#543C52" style="stroke:#543C52;stroke:color(display-p3 0.3294 0.2353 0.3216);stroke-opacity:1;" stroke-width="1.66667" stroke-linecap="round" stroke-linejoin="round"/>
<path d="M12.3501 10.5176L5.24512 18.3334H15.3559C16.2106 18.3334 17.0303 17.9939 17.6346 17.3896C18.2389 16.7852 18.5785 15.9656 18.5785 15.1109V15.0001C18.5785 14.6118 18.4326 14.4626 18.1701 14.1751L14.8118 10.5126C14.6553 10.3418 14.4649 10.2056 14.2528 10.1126C14.0406 10.0195 13.8115 9.9717 13.5798 9.97217C13.3482 9.97264 13.1192 10.0214 12.9075 10.1153C12.6958 10.2092 12.5059 10.3462 12.3501 10.5176Z" stroke="#543C52" style="stroke:#543C52;stroke:color(display-p3 0.3294 0.2353 0.3216);stroke-opacity:1;" stroke-width="1.66667" stroke-linecap="round" stroke-linejoin="round"/>
</svg>
