<svg width="21" height="20" viewBox="0 0 21 20" fill="none" xmlns="http://www.w3.org/2000/svg">
<path d="M4.91276 15.8333H6.10026L14.2461 7.6875L13.0586 6.5L4.91276 14.6458V15.8333ZM3.24609 17.5V13.9583L14.2461 2.97917C14.4128 2.82639 14.5969 2.70833 14.7986 2.625C15.0003 2.54167 15.2119 2.5 15.4336 2.5C15.6553 2.5 15.8705 2.54167 16.0794 2.625C16.2883 2.70833 16.4689 2.83333 16.6211 3L17.7669 4.16667C17.9336 4.31944 18.0553 4.5 18.1319 4.70833C18.2086 4.91667 18.2466 5.125 18.2461 5.33333C18.2461 5.55556 18.208 5.7675 18.1319 5.96917C18.0558 6.17083 17.9341 6.35472 17.7669 6.52083L6.78776 17.5H3.24609ZM13.6419 7.10417L13.0586 6.5L14.2461 7.6875L13.6419 7.10417Z" fill="#070A1C" style="fill:#070A1C;fill:color(display-p3 0.0275 0.0392 0.1098);fill-opacity:1;"/>
</svg>
