<svg width="24" height="24" viewBox="0 0 24 24" fill="none" xmlns="http://www.w3.org/2000/svg">
<rect x="1" y="1" width="22" height="22" rx="11" fill="white" style="fill:white;fill-opacity:1;"/>
<rect x="1" y="1" width="22" height="22" rx="11" stroke="#543C52" style="stroke:#543C52;stroke:color(display-p3 0.3294 0.2353 0.3216);stroke-opacity:1;" stroke-width="2"/>
<g clip-path="url(#clip0_2954_4891)">
<path d="M14.8684 16.0145L12 13.1462L9.13163 16.0145C8.97949 16.1667 8.77313 16.2522 8.55796 16.2522C8.34279 16.2522 8.13643 16.1667 7.98429 16.0145C7.83214 15.8624 7.74666 15.656 7.74666 15.4409C7.74666 15.2257 7.83214 15.0193 7.98429 14.8672L10.8527 11.9988L7.98429 9.13047C7.83214 8.97832 7.74666 8.77196 7.74666 8.55679C7.74666 8.34163 7.83214 8.13527 7.98429 7.98312C8.13643 7.83097 8.34279 7.7455 8.55796 7.7455C8.77313 7.7455 8.97949 7.83097 9.13163 7.98312L12 10.8515L14.8684 7.98312C15.0205 7.83097 15.2269 7.7455 15.442 7.7455C15.6572 7.7455 15.8636 7.83097 16.0157 7.98312C16.1679 8.13527 16.2533 8.34162 16.2533 8.55679C16.2533 8.77196 16.1679 8.97832 16.0157 9.13047L13.1473 11.9988L16.0157 14.8672C16.1679 15.0193 16.2533 15.2257 16.2533 15.4409C16.2533 15.656 16.1679 15.8624 16.0157 16.0145C15.8636 16.1667 15.6572 16.2522 15.442 16.2522C15.2269 16.2522 15.0205 16.1667 14.8684 16.0145Z" fill="#543C52" style="fill:#543C52;fill:color(display-p3 0.3294 0.2353 0.3216);fill-opacity:1;"/>
</g>
<defs>
<clipPath id="clip0_2954_4891">
<rect width="15" height="15" fill="white" style="fill:white;fill-opacity:1;" transform="translate(4.5 4.5)"/>
</clipPath>
</defs>
</svg>
