<svg width="20" height="20" viewBox="0 0 21 20" fill="none" xmlns="http://www.w3.org/2000/svg">
<path d="M17.5767 8.63009L4.44703 1.13791C4.1702 0.982835 3.85271 0.915722 3.53681 0.945492C3.22091 0.975263 2.92155 1.10051 2.67857 1.30456C2.43558 1.50862 2.26048 1.78182 2.17656 2.08782C2.09263 2.39382 2.10386 2.71813 2.20874 3.01759L4.56656 9.99884L2.20874 16.9801C2.12585 17.2156 2.1006 17.4676 2.13512 17.7148C2.16964 17.9621 2.26291 18.1975 2.40713 18.4014C2.55135 18.6052 2.74231 18.7715 2.96401 18.8863C3.18572 19.0011 3.43172 19.0611 3.6814 19.0613C3.9499 19.0608 4.21377 18.9914 4.44781 18.8598L4.45484 18.8551L17.5798 11.3496C17.8205 11.2134 18.0207 11.0158 18.16 10.7769C18.2992 10.538 18.3726 10.2664 18.3726 9.98986C18.3726 9.71333 18.2992 9.44175 18.16 9.20286C18.0207 8.96396 17.8205 8.76631 17.5798 8.63009H17.5767ZM4.24312 16.816L6.22906 10.9363H10.5564C10.805 10.9363 11.0435 10.8376 11.2193 10.6618C11.3951 10.4859 11.4939 10.2475 11.4939 9.99884C11.4939 9.7502 11.3951 9.51175 11.2193 9.33593C11.0435 9.16011 10.805 9.06134 10.5564 9.06134H6.22906L4.24234 3.18009L16.1767 9.99025L4.24312 16.816Z" fill="white" style="fill:white;fill-opacity:1;"/>
</svg>
