<svg width="21" height="20" viewBox="0 0 21 20" fill="none" xmlns="http://www.w3.org/2000/svg">
<path d="M3.5 5.83333H16.8333M8.5 9.16667V14.1667M11.8333 9.16667V14.1667M4.33333 5.83333L5.16667 15.8333C5.16667 16.2754 5.34226 16.6993 5.65482 17.0118C5.96738 17.3244 6.39131 17.5 6.83333 17.5H13.5C13.942 17.5 14.366 17.3244 14.6785 17.0118C14.9911 16.6993 15.1667 16.2754 15.1667 15.8333L16 5.83333M7.66667 5.83333V3.33333C7.66667 3.11232 7.75446 2.90036 7.91074 2.74408C8.06702 2.5878 8.27899 2.5 8.5 2.5H11.8333C12.0543 2.5 12.2663 2.5878 12.4226 2.74408C12.5789 2.90036 12.6667 3.11232 12.6667 3.33333V5.83333" stroke="#543C52" style="stroke:#543C52;stroke:color(display-p3 0.3294 0.2353 0.3216);stroke-opacity:1;" stroke-width="1.66667" stroke-linecap="round" stroke-linejoin="round"/>
</svg>
