<svg width="21" height="20" viewBox="0 0 21 20" fill="none" xmlns="http://www.w3.org/2000/svg">
<g clip-path="url(#clip0_1313_2402)">
<path d="M14.0169 15.3527L10.1924 11.5282L6.36789 15.3527C6.16503 15.5555 5.88989 15.6695 5.60299 15.6695C5.3161 15.6695 5.04096 15.5555 4.8381 15.3527C4.63523 15.1498 4.52127 14.8746 4.52127 14.5878C4.52127 14.3009 4.63523 14.0257 4.8381 13.8229L8.66259 9.99837L4.8381 6.17388C4.63523 5.97101 4.52127 5.69587 4.52127 5.40898C4.52127 5.12209 4.63523 4.84694 4.8381 4.64408C5.04096 4.44122 5.3161 4.32725 5.603 4.32725C5.88989 4.32725 6.16503 4.44122 6.36789 4.64408L10.1924 8.46857L14.0169 4.64408C14.2197 4.44122 14.4949 4.32725 14.7818 4.32725C15.0687 4.32725 15.3438 4.44122 15.5467 4.64408C15.7495 4.84694 15.8635 5.12209 15.8635 5.40898C15.8635 5.69587 15.7495 5.97101 15.5467 6.17388L11.7222 9.99837L15.5467 13.8229C15.7495 14.0257 15.8635 14.3009 15.8635 14.5878C15.8635 14.8746 15.7495 15.1498 15.5467 15.3527C15.3438 15.5555 15.0687 15.6695 14.7818 15.6695C14.4949 15.6695 14.2197 15.5555 14.0169 15.3527Z" fill="black" style="fill:black;fill-opacity:1;"/>
</g>
<defs>
<clipPath id="clip0_1313_2402">
<rect width="20" height="20" fill="white" style="fill:white;fill-opacity:1;" transform="translate(0.192383)"/>
</clipPath>
</defs>
</svg>
