<svg width="21" height="20" viewBox="0 0 21 20" fill="none" xmlns="http://www.w3.org/2000/svg">
<path d="M2.4165 5.00008C2.4165 4.11603 2.76769 3.26818 3.39281 2.64306C4.01794 2.01794 4.86578 1.66675 5.74984 1.66675H15.7498C16.6339 1.66675 17.4817 2.01794 18.1069 2.64306C18.732 3.26818 19.0832 4.11603 19.0832 5.00008V15.0001C19.0832 15.8841 18.732 16.732 18.1069 17.3571C17.4817 17.9822 16.6339 18.3334 15.7498 18.3334H5.74984C4.86578 18.3334 4.01794 17.9822 3.39281 17.3571C2.76769 16.732 2.4165 15.8841 2.4165 15.0001V5.00008Z" stroke="#543C52" style="stroke:#543C52;stroke:color(display-p3 0.3294 0.2353 0.3216);stroke-opacity:1;" stroke-width="1.66667" stroke-linecap="round" stroke-linejoin="round"/>
<path d="M7.83321 9.16667C8.9838 9.16667 9.91654 8.23393 9.91654 7.08333C9.91654 5.93274 8.9838 5 7.83321 5C6.68262 5 5.74988 5.93274 5.74988 7.08333C5.74988 8.23393 6.68262 9.16667 7.83321 9.16667Z" stroke="#543C52" style="stroke:#543C52;stroke:color(display-p3 0.3294 0.2353 0.3216);stroke-opacity:1;" stroke-width="1.66667" stroke-linecap="round" stroke-linejoin="round"/>
<path d="M12.8549 10.5176L5.74988 18.3334H15.8607C16.7154 18.3334 17.535 17.9939 18.1394 17.3896C18.7437 16.7852 19.0832 15.9656 19.0832 15.1109V15.0001C19.0832 14.6118 18.9374 14.4626 18.6749 14.1751L15.3165 10.5126C15.16 10.3418 14.9696 10.2056 14.7575 10.1126C14.5454 10.0195 14.3162 9.9717 14.0846 9.97217C13.853 9.97264 13.624 10.0214 13.4123 10.1153C13.2005 10.2092 13.0107 10.3462 12.8549 10.5176Z" stroke="#543C52" style="stroke:#543C52;stroke:color(display-p3 0.3294 0.2353 0.3216);stroke-opacity:1;" stroke-width="1.66667" stroke-linecap="round" stroke-linejoin="round"/>
</svg>
