<svg width="21" height="20" viewBox="0 0 21 20" fill="none" xmlns="http://www.w3.org/2000/svg">
<path d="M17.2402 11.0801H11.8316V16.4887C11.8316 16.7756 11.7176 17.0508 11.5147 17.2536C11.3119 17.4565 11.0367 17.5705 10.7498 17.5705C10.4629 17.5705 10.1878 17.4565 9.98494 17.2536C9.78208 17.0508 9.66811 16.7756 9.66811 16.4887V11.0801H4.25946C3.97257 11.0801 3.69743 10.9661 3.49457 10.7633C3.2917 10.5604 3.17773 10.2853 3.17773 9.99837C3.17773 9.71148 3.2917 9.43634 3.49457 9.23348C3.69743 9.03061 3.97257 8.91664 4.25946 8.91664H9.66811V3.508C9.66811 3.22111 9.78208 2.94596 9.98494 2.7431C10.1878 2.54024 10.4629 2.42627 10.7498 2.42627C11.0367 2.42627 11.3119 2.54024 11.5147 2.7431C11.7176 2.94596 11.8316 3.22111 11.8316 3.508V8.91664H17.2402C17.5271 8.91664 17.8022 9.03061 18.0051 9.23348C18.208 9.43634 18.3219 9.71148 18.3219 9.99837C18.3219 10.2853 18.208 10.5604 18.0051 10.7633C17.8022 10.9661 17.5271 11.0801 17.2402 11.0801Z" fill="#543C52" style="fill:#543C52;fill:color(display-p3 0.3294 0.2353 0.3216);fill-opacity:1;"/>
</svg>
