<svg width="21" height="21" viewBox="0 0 21 21" fill="none" xmlns="http://www.w3.org/2000/svg">
<path d="M3.34562 7.99798C3.34553 7.27282 3.52569 6.55901 3.8699 5.92075C4.21412 5.28249 4.71158 4.7398 5.31756 4.34149C5.92353 3.94318 6.61901 3.70175 7.34144 3.6389C8.06387 3.57605 8.7906 3.69376 9.45625 3.98144C10.1219 4.26913 10.7056 4.71776 11.1549 5.28699C11.6041 5.85622 11.9048 6.52819 12.03 7.24247C12.1551 7.95675 12.1007 8.69094 11.8718 9.37899C11.6428 10.067 11.2463 10.6874 10.7181 11.1842C11.714 11.6677 12.5787 12.3841 13.2388 13.2728C13.899 14.1615 14.3353 15.1962 14.5106 16.2892C14.5299 16.4109 14.525 16.5351 14.4963 16.6549C14.4676 16.7746 14.4156 16.8876 14.3432 16.9872C14.2708 17.0869 14.1795 17.1713 14.0745 17.2356C13.9695 17.3 13.8529 17.3431 13.7312 17.3624C13.6096 17.3816 13.4854 17.3768 13.3656 17.3481C13.2458 17.3193 13.1329 17.2673 13.0333 17.1949C12.9336 17.1225 12.8492 17.0313 12.7848 16.9263C12.7205 16.8213 12.6774 16.7046 12.6581 16.583C12.4706 15.4084 11.8705 14.3391 10.9656 13.5671C10.0606 12.7951 8.9101 12.3711 7.72062 12.3711C6.53113 12.3711 5.38061 12.7951 4.47566 13.5671C3.5707 14.3391 2.9706 15.4084 2.78312 16.583C2.76375 16.7046 2.72061 16.8212 2.65616 16.9262C2.59172 17.0312 2.50723 17.1224 2.40753 17.1947C2.30782 17.267 2.19484 17.319 2.07505 17.3477C1.95526 17.3763 1.831 17.3811 1.70937 17.3617C1.58773 17.3424 1.4711 17.2992 1.36613 17.2348C1.26117 17.1703 1.16992 17.0858 1.09761 16.9861C1.0253 16.8864 0.97333 16.7735 0.944677 16.6537C0.916024 16.5339 0.911246 16.4096 0.930616 16.288C1.10533 15.195 1.54136 14.1604 2.20163 13.272C2.86191 12.3837 3.72691 11.6679 4.72312 11.1855C4.28812 10.7763 3.94149 10.2824 3.70459 9.73424C3.46768 9.18605 3.34552 8.59517 3.34562 7.99798ZM14.5956 6.12298C15.3219 6.12348 16.0324 6.3348 16.6409 6.73129C17.2494 7.12777 17.7297 7.69236 18.0235 8.35654C18.3174 9.02071 18.4121 9.75589 18.2962 10.4729C18.1803 11.1898 17.8587 11.8577 17.3706 12.3955C18.1319 12.7726 18.8083 13.301 19.3585 13.9483C19.9087 14.5957 20.3211 15.3484 20.5706 16.1605C20.6202 16.3181 20.6271 16.486 20.5908 16.6471C20.5545 16.8083 20.4762 16.9569 20.3639 17.078C20.2515 17.1992 20.1091 17.2884 19.9511 17.3367C19.7932 17.3849 19.6252 17.3906 19.4644 17.353C19.3035 17.3158 19.1554 17.2368 19.0349 17.124C18.9144 17.0111 18.8258 16.8685 18.7781 16.7105C18.5538 15.9859 18.1454 15.3319 17.5929 14.8122C17.0404 14.2926 16.3626 13.925 15.6256 13.7455C15.4209 13.6961 15.2388 13.5792 15.1087 13.4136C14.9785 13.2481 14.9079 13.0436 14.9081 12.833V12.393C14.908 12.2184 14.9566 12.0473 15.0485 11.8989C15.1404 11.7505 15.2718 11.6307 15.4281 11.553C15.8071 11.3652 16.1114 11.0548 16.2917 10.6722C16.4719 10.2896 16.5176 9.85726 16.4211 9.44546C16.3247 9.03366 16.0919 8.66656 15.7605 8.40379C15.4291 8.14101 15.0186 7.998 14.5956 7.99798C14.347 7.99798 14.1085 7.8992 13.9327 7.72339C13.7569 7.54757 13.6581 7.30912 13.6581 7.06048C13.6581 6.81184 13.7569 6.57338 13.9327 6.39756C14.1085 6.22175 14.347 6.12298 14.5956 6.12298ZM7.72062 5.49798C7.38769 5.49045 7.05662 5.54951 6.74684 5.67169C6.43705 5.79387 6.1548 5.97671 5.91665 6.20948C5.6785 6.44225 5.48926 6.72025 5.36002 7.02716C5.23079 7.33407 5.16418 7.6637 5.1641 7.99671C5.16401 8.32972 5.23046 8.65939 5.35954 8.96637C5.48862 9.27334 5.67772 9.55143 5.91576 9.78432C6.15379 10.0172 6.43595 10.2002 6.74567 10.3225C7.0554 10.4449 7.38644 10.5041 7.71937 10.4967C8.37257 10.4823 8.99416 10.2127 9.45108 9.74568C9.908 9.27866 10.1639 8.65132 10.1641 7.99796C10.1643 7.3446 9.90864 6.71714 9.45195 6.24989C8.99527 5.78264 8.37381 5.51275 7.72062 5.49798Z" fill="#81818D" style="fill:#81818D;fill:color(display-p3 0.5059 0.5059 0.5529);fill-opacity:1;"/>
</svg>
