<svg width="21" height="20" viewBox="0 0 21 20" fill="none" xmlns="http://www.w3.org/2000/svg">
<path d="M18.812 6.98984C18.6067 6.75722 18.3542 6.57094 18.0713 6.44338C17.7884 6.31583 17.4817 6.24991 17.1714 6.25H13.1089V5.3125C13.1079 4.40114 12.7454 3.52739 12.1009 2.88296C11.4565 2.23853 10.5828 1.87603 9.67139 1.875C9.49735 1.87502 9.32676 1.92348 9.17871 2.01496C9.03065 2.10645 8.91099 2.23733 8.83311 2.39297L5.9667 8.125H2.79639C2.38199 8.125 1.98456 8.28962 1.69153 8.58265C1.39851 8.87567 1.23389 9.2731 1.23389 9.6875V16.5625C1.23389 16.9769 1.39851 17.3743 1.69153 17.6674C1.98456 17.9604 2.38199 18.125 2.79639 18.125H16.2339C16.767 18.1249 17.2818 17.9301 17.6815 17.5772C18.0811 17.2243 18.3381 16.7376 18.4042 16.2086L19.3417 8.70859C19.3803 8.40093 19.353 8.08858 19.2617 7.79226C19.1703 7.49595 19.0171 7.22243 18.812 6.98984ZM3.10889 10H5.60889V16.25H3.10889V10ZM17.4839 8.47656L16.5464 15.9766C16.5368 16.0525 16.4997 16.1223 16.4421 16.1727C16.3845 16.2231 16.3104 16.2506 16.2339 16.25H7.48389V9.28359L10.2042 3.84375C10.5059 3.95319 10.7666 4.15287 10.9508 4.41565C11.135 4.67843 11.2339 4.99157 11.2339 5.3125V7.1875C11.2339 7.43614 11.3327 7.6746 11.5085 7.85041C11.6843 8.02623 11.9227 8.125 12.1714 8.125H17.1714C17.2159 8.12465 17.26 8.13383 17.3007 8.15192C17.3414 8.17 17.3778 8.19659 17.4074 8.22988C17.437 8.26317 17.4591 8.3024 17.4723 8.34495C17.4855 8.3875 17.4895 8.43237 17.4839 8.47656Z" fill="#81818D" style="fill:#81818D;fill:color(display-p3 0.5059 0.5059 0.5529);fill-opacity:1;"/>
</svg>
