
<svg xmlns="http://www.w3.org/2000/svg" width="20" height="20" viewBox="0 0 21 20" fill="none">
<path d="M10.7461 1.33008C13.0447 1.33264 15.2487 2.2467 16.874 3.87207C18.4994 5.49744 19.4135 7.70138 19.416 10L19.4102 10.3213C19.3547 11.8168 18.9128 13.2726 18.1279 14.5469L17.9551 14.8164C17.062 16.153 15.816 17.2138 14.3584 17.8818L14.0635 18.0098C12.5785 18.6248 10.9539 18.8148 9.37109 18.5605L9.05469 18.5029C7.37291 18.1684 5.82773 17.3434 4.61523 16.1309C3.47847 14.9941 2.68231 13.5649 2.31152 12.0049L2.24316 11.6914C1.92956 10.1148 2.06089 8.48441 2.61914 6.98145L2.73633 6.68262C3.35154 5.19736 4.36667 3.91415 5.66602 2.97461L5.92969 2.79102C7.26619 1.89808 8.82275 1.39533 10.4248 1.33594L10.7461 1.33008ZM13.3584 3.69336C12.111 3.17667 10.7383 3.04128 9.41406 3.30469C8.08993 3.56813 6.8736 4.21819 5.91895 5.17285C4.96429 6.12751 4.31422 7.34383 4.05078 8.66797C3.80385 9.90938 3.9071 11.1935 4.34668 12.377L4.43945 12.6123C4.9239 13.7819 5.72289 14.7924 6.74609 15.5322L6.95312 15.6758C8.00555 16.379 9.2316 16.7755 10.4932 16.8223L10.7461 16.8262C12.556 16.8242 14.2915 16.105 15.5713 14.8252C16.8511 13.5454 17.5703 11.8099 17.5723 10L17.5684 9.74707C17.5247 8.56953 17.1766 7.42323 16.5586 6.41992L16.4219 6.20703C15.7186 5.15462 14.7376 4.31985 13.5898 3.79395L13.3584 3.69336ZM14.0996 11.0078C14.1906 11.0194 14.279 11.0445 14.3623 11.082L14.4443 11.124C14.5503 11.1852 14.6428 11.2669 14.7168 11.3643C14.7723 11.4373 14.8171 11.5178 14.8486 11.6035L14.876 11.6914C14.899 11.7805 14.9085 11.8723 14.9043 11.9639L14.8955 12.0547C14.8823 12.1455 14.8556 12.2338 14.8164 12.3164L14.7734 12.3975H14.7725C13.8925 13.9221 12.4233 14.7959 10.7461 14.7959C9.17355 14.7959 7.78594 14.0289 6.8916 12.6758L6.71973 12.3975C6.61789 12.2129 6.58224 11.9999 6.61816 11.7939L6.63867 11.7061C6.69524 11.5023 6.81975 11.3251 6.99023 11.2031L7.06543 11.1543C7.24857 11.0485 7.46177 11.0096 7.66895 11.042L7.75684 11.0596C7.99021 11.1198 8.19079 11.2693 8.31543 11.4756V11.4766C8.63282 12.0256 9.37357 12.9521 10.7461 12.9521C11.947 12.9521 12.664 12.2421 13.0371 11.6973L13.1768 11.4766V11.4756C13.2212 11.3952 13.2779 11.3223 13.3438 11.2588L13.4121 11.1982C13.4841 11.1414 13.5643 11.0956 13.6494 11.0625L13.7363 11.0342C13.8247 11.0097 13.9165 10.9976 14.0078 11L14.0996 11.0078ZM8.08301 7.16504C8.32442 7.21306 8.54666 7.33181 8.7207 7.50586C8.85109 7.63628 8.94998 7.79364 9.01172 7.96582L9.06152 8.14258C9.09753 8.32357 9.09223 8.50993 9.04785 8.6875L8.99023 8.8623C8.89604 9.08958 8.73678 9.2842 8.53223 9.4209C8.32766 9.55759 8.08685 9.62982 7.84082 9.62988C7.55205 9.62988 7.2732 9.53004 7.05176 9.34863L6.96094 9.26562C6.72755 9.03224 6.5957 8.7158 6.5957 8.38574C6.59571 8.20132 6.63677 8.01991 6.71484 7.85449L6.80566 7.69434C6.90823 7.54083 7.04317 7.41256 7.2002 7.31836L7.36426 7.23633C7.5349 7.16565 7.71839 7.13362 7.90137 7.14258L8.08301 7.16504ZM13.6514 7.1416C13.9401 7.1416 14.219 7.24146 14.4404 7.42285L14.5312 7.50586C14.7646 7.73924 14.8965 8.05569 14.8965 8.38574C14.8965 8.57015 14.8554 8.75158 14.7773 8.91699L14.6865 9.07715C14.5498 9.28177 14.3553 9.44096 14.1279 9.53516C13.9573 9.60584 13.7738 9.63787 13.5908 9.62891L13.4092 9.60645C13.2282 9.57045 13.0582 9.49464 12.9111 9.38574L12.7715 9.26562C12.6411 9.13519 12.5422 8.97785 12.4805 8.80566L12.4307 8.62891C12.3947 8.44789 12.3999 8.26158 12.4443 8.08398L12.502 7.90918C12.5726 7.73876 12.6799 7.58681 12.8154 7.46387L12.96 7.35059C13.1645 7.2139 13.4053 7.14167 13.6514 7.1416Z" fill="#543C52" stroke="#543C52" style="fill:#543C52;fill:color(display-p3 0.3294 0.2353 0.3216);fill-opacity:1;stroke:#543C52;stroke:color(display-p3 0.3294 0.2353 0.3216);stroke-opacity:1;" stroke-width="0.09375"/>
</svg>