<svg width="21" height="20" viewBox="0 0 21 20" fill="none" xmlns="http://www.w3.org/2000/svg">
<path d="M12.4834 10C12.4834 10.4326 12.3551 10.8556 12.1147 11.2153C11.8744 11.575 11.5327 11.8554 11.133 12.021C10.7333 12.1866 10.2935 12.2299 9.86914 12.1455C9.44481 12.0611 9.05503 11.8527 8.7491 11.5468C8.44318 11.2409 8.23484 10.8511 8.15043 10.4268C8.06603 10.0024 8.10935 9.56259 8.27491 9.16288C8.44048 8.76317 8.72086 8.42153 9.08059 8.18116C9.44032 7.9408 9.86325 7.8125 10.2959 7.8125C10.8761 7.8125 11.4325 8.04297 11.8427 8.45321C12.2529 8.86344 12.4834 9.41984 12.4834 10ZM10.2959 5.9375C10.7285 5.9375 11.1515 5.80921 11.5112 5.56884C11.8709 5.32848 12.1513 4.98683 12.3169 4.58712C12.4825 4.18741 12.5258 3.74757 12.4414 3.32324C12.357 2.89891 12.1486 2.50913 11.8427 2.2032C11.5368 1.89728 11.147 1.68894 10.7227 1.60453C10.2983 1.52013 9.85849 1.56345 9.45878 1.72901C9.05907 1.89458 8.71743 2.17496 8.47706 2.53469C8.23669 2.89442 8.1084 3.31735 8.1084 3.75C8.1084 4.33016 8.33887 4.88656 8.7491 5.2968C9.15934 5.70703 9.71574 5.9375 10.2959 5.9375ZM10.2959 14.0625C9.86325 14.0625 9.44032 14.1908 9.08059 14.4312C8.72086 14.6715 8.44048 15.0132 8.27491 15.4129C8.10935 15.8126 8.06603 16.2524 8.15043 16.6768C8.23484 17.1011 8.44318 17.4909 8.7491 17.7968C9.05503 18.1027 9.44481 18.3111 9.86914 18.3955C10.2935 18.4799 10.7333 18.4366 11.133 18.271C11.5327 18.1054 11.8744 17.825 12.1147 17.4653C12.3551 17.1056 12.4834 16.6826 12.4834 16.25C12.4834 15.6698 12.2529 15.1134 11.8427 14.7032C11.4325 14.293 10.8761 14.0625 10.2959 14.0625Z" fill="#81818D" style="fill:#81818D;fill:color(display-p3 0.5059 0.5059 0.5529);fill-opacity:1;"/>
</svg>
