<svg xmlns="http://www.w3.org/2000/svg" width="21" height="20" viewBox="0 0 21 20" fill="none">
<g clip-path="url(#clip0_3282_6201)">
<path d="M14.4886 15.3527L10.6641 11.5282L6.83957 15.3527C6.63671 15.5555 6.36157 15.6695 6.07467 15.6695C5.78778 15.6695 5.51264 15.5555 5.30978 15.3527C5.10691 15.1498 4.99295 14.8746 4.99295 14.5878C4.99295 14.3009 5.10691 14.0257 5.30978 13.8229L9.13427 9.99837L5.30978 6.17388C5.10691 5.97101 4.99295 5.69587 4.99295 5.40898C4.99295 5.12209 5.10691 4.84694 5.30978 4.64408C5.51264 4.44122 5.78778 4.32725 6.07467 4.32725C6.36157 4.32725 6.63671 4.44122 6.83957 4.64408L10.6641 8.46857L14.4886 4.64408C14.6914 4.44122 14.9666 4.32725 15.2534 4.32725C15.5403 4.32725 15.8155 4.44122 16.0183 4.64408C16.2212 4.84694 16.3352 5.12209 16.3352 5.40898C16.3352 5.69587 16.2212 5.97101 16.0183 6.17388L12.1939 9.99837L16.0183 13.8229C16.2212 14.0257 16.3352 14.3009 16.3352 14.5878C16.3352 14.8746 16.2212 15.1498 16.0183 15.3527C15.8155 15.5555 15.5403 15.6695 15.2534 15.6695C14.9666 15.6695 14.6914 15.5555 14.4886 15.3527Z" fill="black" style="fill:black;fill-opacity:1;"/>
</g>
<defs>
<clipPath id="clip0_3282_6201">
<rect width="20" height="20" fill="white" style="fill:white;fill-opacity:1;" transform="translate(0.664062)"/>
</clipPath>
</defs>
</svg>