<svg width="21" height="20" viewBox="0 0 21 20" fill="none" xmlns="http://www.w3.org/2000/svg">
<path d="M16.6562 11.0801H11.2476V16.4887C11.2476 16.7756 11.1336 17.0508 10.9307 17.2536C10.7279 17.4565 10.4527 17.5705 10.1659 17.5705C9.87896 17.5705 9.60382 17.4565 9.40095 17.2536C9.19809 17.0508 9.08412 16.7756 9.08412 16.4887V11.0801H3.67548C3.38859 11.0801 3.11344 10.9661 2.91058 10.7633C2.70772 10.5604 2.59375 10.2853 2.59375 9.99837C2.59375 9.71148 2.70772 9.43634 2.91058 9.23348C3.11344 9.03061 3.38859 8.91664 3.67548 8.91664H9.08412V3.508C9.08412 3.22111 9.19809 2.94596 9.40095 2.7431C9.60382 2.54024 9.87896 2.42627 10.1659 2.42627C10.4527 2.42627 10.7279 2.54024 10.9307 2.7431C11.1336 2.94596 11.2476 3.22111 11.2476 3.508V8.91664H16.6562C16.9431 8.91664 17.2183 9.03061 17.4211 9.23348C17.624 9.43634 17.738 9.71148 17.738 9.99837C17.738 10.2853 17.624 10.5604 17.4211 10.7633C17.2183 10.9661 16.9431 11.0801 16.6562 11.0801Z" fill="#543C52" style="fill:#543C52;fill:color(display-p3 0.3294 0.2353 0.3216);fill-opacity:1;"/>
</svg>
