<svg width="21" height="20" viewBox="0 0 21 20" fill="none" xmlns="http://www.w3.org/2000/svg">
<path d="M4.83073 15.8333H6.01823L14.1641 7.6875L12.9766 6.5L4.83073 14.6458V15.8333ZM3.16406 17.5V13.9583L14.1641 2.97917C14.3307 2.82639 14.5149 2.70833 14.7166 2.625C14.9182 2.54167 15.1299 2.5 15.3516 2.5C15.5732 2.5 15.7885 2.54167 15.9974 2.625C16.2063 2.70833 16.3868 2.83333 16.5391 3L17.6849 4.16667C17.8516 4.31944 17.9732 4.5 18.0499 4.70833C18.1266 4.91667 18.1646 5.125 18.1641 5.33333C18.1641 5.55556 18.126 5.7675 18.0499 5.96917C17.9738 6.17083 17.8521 6.35472 17.6849 6.52083L6.70573 17.5H3.16406ZM13.5599 7.10417L12.9766 6.5L14.1641 7.6875L13.5599 7.10417Z" fill="#070A1C" style="fill:#070A1C;fill:color(display-p3 0.0275 0.0392 0.1098);fill-opacity:1;"/>
</svg>
