<svg xmlns="http://www.w3.org/2000/svg" width="21" height="20" viewBox="0 0 21 20" fill="none">
<path d="M8.58073 13.3333C7.06684 13.3333 5.78573 12.8089 4.7374 11.76C3.68906 10.7111 3.16462 9.43 3.16406 7.91667C3.16351 6.40333 3.68795 5.12222 4.7374 4.07333C5.78684 3.02444 7.06795 2.5 8.58073 2.5C10.0935 2.5 11.3749 3.02444 12.4249 4.07333C13.4749 5.12222 13.9991 6.40333 13.9974 7.91667C13.9974 8.52778 13.9002 9.10417 13.7057 9.64583C13.5113 10.1875 13.2474 10.6667 12.9141 11.0833L17.5807 15.75C17.7335 15.9028 17.8099 16.0972 17.8099 16.3333C17.8099 16.5694 17.7335 16.7639 17.5807 16.9167C17.428 17.0694 17.2335 17.1458 16.9974 17.1458C16.7613 17.1458 16.5668 17.0694 16.4141 16.9167L11.7474 12.25C11.3307 12.5833 10.8516 12.8472 10.3099 13.0417C9.76823 13.2361 9.19184 13.3333 8.58073 13.3333ZM8.58073 11.6667C9.6224 11.6667 10.508 11.3022 11.2374 10.5733C11.9668 9.84444 12.3313 8.95889 12.3307 7.91667C12.3302 6.87444 11.9657 5.98917 11.2374 5.26083C10.5091 4.5325 9.62351 4.16778 8.58073 4.16667C7.53795 4.16556 6.65267 4.53028 5.9249 5.26083C5.19712 5.99139 4.8324 6.87667 4.83073 7.91667C4.82906 8.95667 5.19379 9.84222 5.9249 10.5733C6.65601 11.3044 7.54129 11.6689 8.58073 11.6667Z" fill="#81818D" style="fill:#81818D;fill:color(display-p3 0.5059 0.5059 0.5529);fill-opacity:1;"/>
</svg>