<svg xmlns="http://www.w3.org/2000/svg" width="26" height="26" viewBox="0 0 26 26" fill="none">
<path d="M2.89844 15.5C2.89844 13.5069 3.69021 11.5954 5.09958 10.186C6.50895 8.77664 8.42047 7.98486 10.4136 7.98486C12.4068 7.98486 14.3183 8.77664 15.7276 10.186C17.137 11.5954 17.9288 13.5069 17.9288 15.5V20.2816C17.9288 21.0782 17.9288 21.4746 17.8104 21.7931C17.7163 22.0454 17.569 22.2746 17.3786 22.465C17.1881 22.6555 16.959 22.8027 16.7066 22.8969C16.3882 23.0152 15.9908 23.0152 15.1951 23.0152H10.4136C8.42047 23.0152 6.50895 22.2234 5.09958 20.8141C3.69021 19.4047 2.89844 17.4932 2.89844 15.5Z" stroke="#81818D" style="stroke:#81818D;stroke:color(display-p3 0.5059 0.5059 0.5529);stroke-opacity:1;" stroke-width="1.66667"/>
<path d="M7.5957 14.5607H13.2321M10.4139 18.3183H13.2321" stroke="#81818D" style="stroke:#81818D;stroke:color(display-p3 0.5059 0.5059 0.5529);stroke-opacity:1;" stroke-width="1.66667" stroke-linecap="round" stroke-linejoin="round"/>
<rect x="10.2891" y="1.375" width="14.25" height="14.25" rx="7.125" fill="#F43F5E" style="fill:#F43F5E;fill:color(display-p3 0.9569 0.2471 0.3686);fill-opacity:1;"/>
<rect x="10.2891" y="1.375" width="14.25" height="14.25" rx="7.125" stroke="white" style="stroke:white;stroke-opacity:1;" stroke-width="2.25"/>
<path d="M15.2091 11.563V10.483L17.0091 8.629C17.3631 8.263 17.6301 7.975 17.8101 7.765C17.9961 7.549 18.1221 7.369 18.1881 7.225C18.2601 7.081 18.2961 6.94 18.2961 6.802C18.2961 6.556 18.2151 6.364 18.0531 6.226C17.8971 6.082 17.6991 6.01 17.4591 6.01C17.2131 6.01 16.9941 6.082 16.8021 6.226C16.6101 6.364 16.4691 6.577 16.3791 6.865L15.1641 6.469C15.2361 6.121 15.3861 5.818 15.6141 5.56C15.8421 5.302 16.1181 5.104 16.4421 4.966C16.7661 4.822 17.1051 4.75 17.4591 4.75C17.9031 4.75 18.2931 4.828 18.6291 4.984C18.9651 5.14 19.2261 5.359 19.4121 5.641C19.5981 5.923 19.6911 6.253 19.6911 6.631C19.6911 6.871 19.6491 7.108 19.5651 7.342C19.4811 7.57 19.3521 7.804 19.1781 8.044C19.0101 8.278 18.7911 8.533 18.5211 8.809L16.9821 10.393H19.7541V11.563H15.2091Z" fill="white" style="fill:white;fill-opacity:1;"/>
</svg>