<svg width="47" height="46" viewBox="0 0 47 46" fill="none" xmlns="http://www.w3.org/2000/svg">
<circle cx="23.6641" cy="23" r="23" fill="#543C52" style="fill:#543C52;fill:color(display-p3 0.3294 0.2353 0.3216);fill-opacity:1;"/>
<path d="M13.0144 29.1782V17.9782H14.9504L19.3824 26.1062V17.9782H21.1424V29.1782H19.2064L14.7744 21.0502V29.1782H13.0144ZM35.1936 23.5622V25.2102H33.9616C33.6736 26.5329 33.055 27.5729 32.1056 28.3302C31.167 29.0769 29.967 29.4502 28.5056 29.4502C26.767 29.4502 25.3696 28.9062 24.3136 27.8182C23.2576 26.7196 22.735 25.3329 22.7456 23.6582C22.7563 21.9942 23.279 20.5862 24.3136 19.4342C25.359 18.2822 26.8096 17.7062 28.6656 17.7062C30.0096 17.7062 31.1296 18.0529 32.0256 18.7462C32.9323 19.4396 33.4336 20.3036 33.5296 21.3382H31.5136C31.3856 20.7516 31.071 20.2769 30.5696 19.9142C30.0683 19.5409 29.4336 19.3542 28.6656 19.3542C27.3643 19.3542 26.3723 19.7649 25.6896 20.5862C25.007 21.3969 24.671 22.4209 24.6816 23.6582C24.671 24.8422 25.0123 25.8289 25.7056 26.6182C26.4096 27.4076 27.343 27.8022 28.5056 27.8022C30.415 27.8022 31.5883 26.9382 32.0256 25.2102H29.8656V23.5622H35.1936Z" fill="white" style="fill:white;fill-opacity:1;"/>
</svg>
