<svg width="21" height="21" viewBox="0 0 21 21" fill="none" xmlns="http://www.w3.org/2000/svg">
<path d="M3.78906 2.72754H8.78906C9.02709 2.72754 9.25551 2.82192 9.42383 2.99023C9.59214 3.15855 9.68652 3.38697 9.68652 3.625C9.68652 3.86303 9.59214 4.09145 9.42383 4.25977C9.25551 4.42808 9.02709 4.52246 8.78906 4.52246H4.68652V16.4775H8.78906C9.02709 16.4775 9.25551 16.5719 9.42383 16.7402C9.59214 16.9085 9.68652 17.137 9.68652 17.375C9.68652 17.613 9.59214 17.8415 9.42383 18.0098C9.25551 18.1781 9.02709 18.2725 8.78906 18.2725H3.78906C3.55103 18.2725 3.32261 18.1781 3.1543 18.0098C2.98598 17.8415 2.8916 17.613 2.8916 17.375V3.625C2.8916 3.38697 2.98598 3.15855 3.1543 2.99023C3.32261 2.82192 3.55103 2.72754 3.78906 2.72754ZM14.4131 6.47656C14.6515 6.47656 14.8802 6.57162 15.0488 6.74023L18.1738 9.86523C18.2573 9.94855 18.3239 10.0473 18.3691 10.1562C18.4144 10.2654 18.4376 10.3829 18.4375 10.501C18.4374 10.6189 18.4144 10.7358 18.3691 10.8447C18.3238 10.9537 18.2575 11.0534 18.1738 11.1367H18.1729L15.0479 14.2617C14.8793 14.4302 14.6504 14.5254 14.4121 14.5254C14.1738 14.5253 13.9449 14.4302 13.7764 14.2617C13.6079 14.0932 13.5137 13.8643 13.5137 13.626C13.5137 13.3877 13.6079 13.1588 13.7764 12.9902L15.3018 11.4658L15.3701 11.3975H8.78906C8.55103 11.3975 8.32261 11.3031 8.1543 11.1348C7.98598 10.9665 7.8916 10.738 7.8916 10.5C7.8916 10.262 7.98598 10.0335 8.1543 9.86523C8.32261 9.69692 8.55103 9.60254 8.78906 9.60254H15.3701L15.3018 9.53418L13.7773 8.01172C13.6088 7.84315 13.5137 7.61437 13.5137 7.37598C13.5137 7.13761 13.6088 6.90883 13.7773 6.74023C13.9459 6.57166 14.1747 6.47661 14.4131 6.47656Z" fill="#070A1C" stroke="#070A1C" style="fill:#070A1C;fill:color(display-p3 0.0275 0.0392 0.1098);fill-opacity:1;stroke:#070A1C;stroke:color(display-p3 0.0275 0.0392 0.1098);stroke-opacity:1;" stroke-width="0.08"/>
</svg>
