<svg xmlns="http://www.w3.org/2000/svg" width="21" height="20" viewBox="0 0 21 20" fill="none">
<path d="M16.6543 11.0801H11.2456V16.4887C11.2456 16.7756 11.1317 17.0508 10.9288 17.2536C10.7259 17.4565 10.4508 17.5705 10.1639 17.5705C9.87701 17.5705 9.60187 17.4565 9.399 17.2536C9.19614 17.0508 9.08217 16.7756 9.08217 16.4887V11.0801H3.67353C3.38663 11.0801 3.11149 10.9661 2.90863 10.7633C2.70576 10.5604 2.5918 10.2853 2.5918 9.99837C2.5918 9.71148 2.70576 9.43634 2.90863 9.23348C3.11149 9.03061 3.38663 8.91664 3.67353 8.91664H9.08217V3.508C9.08217 3.22111 9.19614 2.94596 9.399 2.7431C9.60187 2.54024 9.87701 2.42627 10.1639 2.42627C10.4508 2.42627 10.7259 2.54024 10.9288 2.7431C11.1317 2.94596 11.2456 3.22111 11.2456 3.508V8.91664H16.6543C16.9412 8.91664 17.2163 9.03061 17.4192 9.23348C17.622 9.43634 17.736 9.71148 17.736 9.99837C17.736 10.2853 17.622 10.5604 17.4192 10.7633C17.2163 10.9661 16.9412 11.0801 16.6543 11.0801Z" fill="#543C52" style="fill:#543C52;fill:color(display-p3 0.3294 0.2353 0.3216);fill-opacity:1;"/>
</svg>