<svg width="21" height="20" viewBox="0 0 21 20" fill="none" xmlns="http://www.w3.org/2000/svg">
<path d="M17.9937 8.63021L4.86402 1.13803C4.58719 0.982957 4.26971 0.915844 3.9538 0.945614C3.6379 0.975385 3.33855 1.10063 3.09556 1.30468C2.85258 1.50874 2.67747 1.78194 2.59355 2.08794C2.50962 2.39395 2.52085 2.71825 2.62574 3.01771L4.98355 9.99896L2.62574 16.9802C2.54284 17.2157 2.5176 17.4677 2.55211 17.715C2.58663 17.9623 2.6799 18.1977 2.82412 18.4015C2.96834 18.6053 3.1593 18.7716 3.38101 18.8864C3.60271 19.0012 3.84871 19.0613 4.09839 19.0615C4.36689 19.0609 4.63076 18.9915 4.8648 18.8599L4.87183 18.8552L17.9968 11.3497C18.2375 11.2135 18.4377 11.0159 18.577 10.777C18.7162 10.5381 18.7896 10.2665 18.7896 9.98998C18.7896 9.71345 18.7162 9.44187 18.577 9.20298C18.4377 8.96409 18.2375 8.76644 17.9968 8.63021H17.9937ZM4.66011 16.8162L6.64605 10.9365H10.9734C11.222 10.9365 11.4605 10.8377 11.6363 10.6619C11.8121 10.4861 11.9109 10.2476 11.9109 9.99896C11.9109 9.75032 11.8121 9.51187 11.6363 9.33605C11.4605 9.16024 11.222 9.06146 10.9734 9.06146H6.64605L4.65933 3.18021L16.5937 9.99037L4.66011 16.8162Z" fill="white" style="fill:white;fill-opacity:1;"/>
</svg>
