<svg width="21" height="20" viewBox="0 0 21 20" fill="none" xmlns="http://www.w3.org/2000/svg">
<path d="M3.99609 5.83333H17.3294M8.99609 9.16667V14.1667M12.3294 9.16667V14.1667M4.82943 5.83333L5.66276 15.8333C5.66276 16.2754 5.83836 16.6993 6.15092 17.0118C6.46348 17.3244 6.8874 17.5 7.32943 17.5H13.9961C14.4381 17.5 14.862 17.3244 15.1746 17.0118C15.4872 16.6993 15.6628 16.2754 15.6628 15.8333L16.4961 5.83333M8.16276 5.83333V3.33333C8.16276 3.11232 8.25056 2.90036 8.40684 2.74408C8.56312 2.5878 8.77508 2.5 8.99609 2.5H12.3294C12.5504 2.5 12.7624 2.5878 12.9187 2.74408C13.075 2.90036 13.1628 3.11232 13.1628 3.33333V5.83333" stroke="#070A1C" style="stroke:#070A1C;stroke:color(display-p3 0.0275 0.0392 0.1098);stroke-opacity:1;" stroke-width="1.66667" stroke-linecap="round" stroke-linejoin="round"/>
</svg>
