<svg width="21" height="20" viewBox="0 0 21 20" fill="none" xmlns="http://www.w3.org/2000/svg">
<path d="M12.8516 10C12.8516 10.4326 12.7233 10.8556 12.4829 11.2153C12.2425 11.575 11.9009 11.8554 11.5012 12.021C11.1015 12.1866 10.6616 12.2299 10.2373 12.1455C9.81297 12.0611 9.4232 11.8527 9.11727 11.5468C8.81134 11.2409 8.603 10.8511 8.5186 10.4268C8.43419 10.0024 8.47751 9.56259 8.64308 9.16288C8.80864 8.76317 9.08902 8.42153 9.44875 8.18116C9.80849 7.9408 10.2314 7.8125 10.6641 7.8125C11.2442 7.8125 11.8006 8.04297 12.2109 8.45321C12.6211 8.86344 12.8516 9.41984 12.8516 10ZM10.6641 5.9375C11.0967 5.9375 11.5196 5.80921 11.8794 5.56884C12.2391 5.32848 12.5195 4.98683 12.6851 4.58712C12.8506 4.18741 12.8939 3.74757 12.8095 3.32324C12.7251 2.89891 12.5168 2.50913 12.2109 2.2032C11.9049 1.89728 11.5152 1.68894 11.0908 1.60453C10.6665 1.52013 10.2267 1.56345 9.82694 1.72901C9.42723 1.89458 9.08559 2.17496 8.84522 2.53469C8.60486 2.89442 8.47656 3.31735 8.47656 3.75C8.47656 4.33016 8.70703 4.88656 9.11727 5.2968C9.5275 5.70703 10.0839 5.9375 10.6641 5.9375ZM10.6641 14.0625C10.2314 14.0625 9.80849 14.1908 9.44875 14.4312C9.08902 14.6715 8.80864 15.0132 8.64308 15.4129C8.47751 15.8126 8.43419 16.2524 8.5186 16.6768C8.603 17.1011 8.81134 17.4909 9.11727 17.7968C9.4232 18.1027 9.81297 18.3111 10.2373 18.3955C10.6616 18.4799 11.1015 18.4366 11.5012 18.271C11.9009 18.1054 12.2425 17.825 12.4829 17.4653C12.7233 17.1056 12.8516 16.6826 12.8516 16.25C12.8516 15.6698 12.6211 15.1134 12.2109 14.7032C11.8006 14.293 11.2442 14.0625 10.6641 14.0625Z" fill="#81818D" style="fill:#81818D;fill:color(display-p3 0.5059 0.5059 0.5529);fill-opacity:1;"/>
</svg>
